# xmcd CD database file
#
# Track frame offsets:
#	150
#	16670
#	36294
#	53631
#	67471
#	83496
#	100098
#	119545
#	132550
#	146771
#	160279
#	177887
#	193565
#	205577
#	218579
#	233004
#	246180
#	261673
#	279556
#	292129
#
# Disc length: 4115 seconds
#
# Revision: 0
# Processed by: cddbd v1.5.2PL0 Copyright (c) Steve Scherf et al.
# Submitted via: CDex 1.51
#
DISCID=2f101114
DTITLE=Kenny Rogers - The Best Of - Disc 1 of 2
DYEAR=2005
DGENRE=Country
TTITLE0=Lucille
TTITLE1=Coward of the County
TTITLE2=We've Got Tonight (feat. Sheena Easton)
TTITLE3=All I Ever Need is You (fear. Dottie West)
TTITLE4=Green Green Grass of Home
TTITLE5=Don't Fall In Love With A Dreamer (feat. Kim Carnes)
TTITLE6=Sweet Music Man
TTITLE7=We Love Each Other (feat. Dottie West)
TTITLE8=The Son of Hickory Holler's Tramp
TTITLE9=Every Time Two Fools Collide (feat. Dottie West)
TTITLE10=All My Life
TTITLE11=I Wasn't Man Enough
TTITLE12=My World Begins And Ends With You
TTITLE13=You Are So Beautiful
TTITLE14=Love The World Away
TTITLE15=Together Again (feat. Dottie West)
TTITLE16=Let It Be Me (feat. Dottie West)
TTITLE17=You Were A Good Friend
TTITLE18=Reuben James
TTITLE19=Twentieth Century Fool
EXTD=YEAR: 2005
EXTT0=
EXTT1=
EXTT2=
EXTT3=
EXTT4=
EXTT5=
EXTT6=
EXTT7=
EXTT8=
EXTT9=
EXTT10=
EXTT11=
EXTT12=
EXTT13=
EXTT14=
EXTT15=
EXTT16=
EXTT17=
EXTT18=
EXTT19=
PLAYORDER=
